<?xml version="1.0" encoding="UTF-8"?>
<svg xmlns="http://www.w3.org/2000/svg" width="1100" height="1318" viewBox="0 0 1100 1318" font-family="Arial, Helvetica, sans-serif">
  <rect x="0" y="0" width="1100" height="1318" fill="#ffffff"/>
  <rect x="0" y="0" width="1100" height="56" fill="#1a1a2e"/>
  <text x="550" y="36" font-size="18" font-weight="bold" text-anchor="middle" fill="#ffffff">quicraft Performance</text>
  <line x1="337" y1="66" x2="337" y2="1248" stroke="#e0e0e0" stroke-width="1" stroke-dasharray="4,4" opacity="0.5"/>
  <line x1="475" y1="66" x2="475" y2="1248" stroke="#e0e0e0" stroke-width="1" stroke-dasharray="4,4" opacity="0.5"/>
  <line x1="612" y1="66" x2="612" y2="1248" stroke="#e0e0e0" stroke-width="1" stroke-dasharray="4,4" opacity="0.5"/>
  <line x1="750" y1="66" x2="750" y2="1248" stroke="#e0e0e0" stroke-width="1" stroke-dasharray="4,4" opacity="0.5"/>
  <rect x="0" y="122" width="1100" height="42" fill="#ffffff"/>
  <text x="188" y="145" font-size="15" font-weight="normal" text-anchor="end" fill="#333333">Election (WAL)</text>
  <rect x="200" y="126" width="550" height="24" rx="3" fill="#2196F3" opacity="0.9"/>
  <text x="764" y="145" font-size="13" font-weight="bold" text-anchor="start" fill="#444444">52.6 ops/s</text>
  <text x="904" y="145" font-size="11" font-weight="normal" text-anchor="start" fill="#777777">P50: 17.54ms</text>
  <line x1="20" y1="167" x2="1080" y2="167" stroke="#dee2e6" stroke-width="1"/>
  <rect x="0" y="164" width="1100" height="42" fill="#f8f9fa"/>
  <text x="188" y="187" font-size="15" font-weight="normal" text-anchor="end" fill="#333333">Election (Memory)</text>
  <rect x="200" y="168" width="550" height="24" rx="3" fill="#2196F3" opacity="0.9"/>
  <text x="764" y="187" font-size="13" font-weight="bold" text-anchor="start" fill="#444444">51.8 ops/s</text>
  <text x="904" y="187" font-size="11" font-weight="normal" text-anchor="start" fill="#777777">P50: 17.66ms</text>
  <line x1="20" y1="209" x2="1080" y2="209" stroke="#dee2e6" stroke-width="1"/>
  <rect x="0" y="206" width="1100" height="42" fill="#ffffff"/>
  <text x="188" y="229" font-size="15" font-weight="normal" text-anchor="end" fill="#333333">Propose Sequential (WAL)</text>
  <rect x="200" y="210" width="550" height="24" rx="3" fill="#2196F3" opacity="0.9"/>
  <text x="764" y="229" font-size="13" font-weight="bold" text-anchor="start" fill="#444444">5.62K ops/s</text>
  <text x="904" y="229" font-size="11" font-weight="normal" text-anchor="start" fill="#777777">P50: 155.1us</text>
  <line x1="20" y1="251" x2="1080" y2="251" stroke="#dee2e6" stroke-width="1"/>
  <rect x="0" y="248" width="1100" height="42" fill="#f8f9fa"/>
  <text x="188" y="271" font-size="15" font-weight="normal" text-anchor="end" fill="#333333">Propose Sequential (Memory)</text>
  <rect x="200" y="252" width="550" height="24" rx="3" fill="#2196F3" opacity="0.9"/>
  <text x="764" y="271" font-size="13" font-weight="bold" text-anchor="start" fill="#444444">60.67K ops/s</text>
  <text x="904" y="271" font-size="11" font-weight="normal" text-anchor="start" fill="#777777">P50: 13.4us</text>
  <line x1="20" y1="293" x2="1080" y2="293" stroke="#dee2e6" stroke-width="1"/>
  <rect x="0" y="290" width="1100" height="42" fill="#ffffff"/>
  <text x="188" y="313" font-size="15" font-weight="normal" text-anchor="end" fill="#333333">Propose Concurrent/8 (WAL)</text>
  <rect x="200" y="294" width="550" height="24" rx="3" fill="#2196F3" opacity="0.9"/>
  <text x="764" y="313" font-size="13" font-weight="bold" text-anchor="start" fill="#444444">23.44K ops/s</text>
  <text x="904" y="313" font-size="11" font-weight="normal" text-anchor="start" fill="#777777">P50: 295.5us</text>
  <line x1="20" y1="335" x2="1080" y2="335" stroke="#dee2e6" stroke-width="1"/>
  <rect x="0" y="332" width="1100" height="42" fill="#f8f9fa"/>
  <text x="188" y="355" font-size="15" font-weight="normal" text-anchor="end" fill="#333333">Propose Concurrent/8 (Memory)</text>
  <rect x="200" y="336" width="550" height="24" rx="3" fill="#2196F3" opacity="0.9"/>
  <text x="764" y="355" font-size="13" font-weight="bold" text-anchor="start" fill="#444444">148.69K ops/s</text>
  <text x="904" y="355" font-size="11" font-weight="normal" text-anchor="start" fill="#777777">P50: 49.1us</text>
  <line x1="20" y1="377" x2="1080" y2="377" stroke="#dee2e6" stroke-width="1"/>
  <rect x="0" y="374" width="1100" height="42" fill="#ffffff"/>
  <text x="188" y="397" font-size="15" font-weight="normal" text-anchor="end" fill="#333333">Commit Latency (WAL)</text>
  <rect x="200" y="378" width="550" height="24" rx="3" fill="#2196F3" opacity="0.9"/>
  <text x="764" y="397" font-size="13" font-weight="bold" text-anchor="start" fill="#444444">5.87K ops/s</text>
  <text x="904" y="397" font-size="11" font-weight="normal" text-anchor="start" fill="#777777">P50: 148.1us</text>
  <line x1="20" y1="419" x2="1080" y2="419" stroke="#dee2e6" stroke-width="1"/>
  <rect x="0" y="416" width="1100" height="42" fill="#f8f9fa"/>
  <text x="188" y="439" font-size="15" font-weight="normal" text-anchor="end" fill="#333333">Commit Latency (Memory)</text>
  <rect x="200" y="420" width="550" height="24" rx="3" fill="#2196F3" opacity="0.9"/>
  <text x="764" y="439" font-size="13" font-weight="bold" text-anchor="start" fill="#444444">57.65K ops/s</text>
  <text x="904" y="439" font-size="11" font-weight="normal" text-anchor="start" fill="#777777">P50: 14.5us</text>
  <line x1="20" y1="461" x2="1080" y2="461" stroke="#dee2e6" stroke-width="1"/>
  <rect x="0" y="458" width="1100" height="42" fill="#ffffff"/>
  <text x="188" y="481" font-size="15" font-weight="normal" text-anchor="end" fill="#333333">Sync Read (WAL)</text>
  <rect x="200" y="462" width="550" height="24" rx="3" fill="#2196F3" opacity="0.9"/>
  <text x="764" y="481" font-size="13" font-weight="bold" text-anchor="start" fill="#444444">290.95K ops/s</text>
  <text x="904" y="481" font-size="11" font-weight="normal" text-anchor="start" fill="#777777">P50: 2.6us</text>
  <line x1="20" y1="503" x2="1080" y2="503" stroke="#dee2e6" stroke-width="1"/>
  <rect x="0" y="500" width="1100" height="42" fill="#f8f9fa"/>
  <text x="188" y="523" font-size="15" font-weight="normal" text-anchor="end" fill="#333333">Sync Read (Memory)</text>
  <rect x="200" y="504" width="550" height="24" rx="3" fill="#2196F3" opacity="0.9"/>
  <text x="764" y="523" font-size="13" font-weight="bold" text-anchor="start" fill="#444444">281.03K ops/s</text>
  <text x="904" y="523" font-size="11" font-weight="normal" text-anchor="start" fill="#777777">P50: 2.6us</text>
  <line x1="20" y1="545" x2="1080" y2="545" stroke="#dee2e6" stroke-width="1"/>
  <rect x="0" y="542" width="1100" height="42" fill="#ffffff"/>
  <text x="188" y="565" font-size="15" font-weight="normal" text-anchor="end" fill="#333333">Stale Read (WAL)</text>
  <rect x="200" y="546" width="550" height="24" rx="3" fill="#2196F3" opacity="0.9"/>
  <text x="764" y="565" font-size="13" font-weight="bold" text-anchor="start" fill="#444444">4.80M ops/s</text>
  <text x="904" y="565" font-size="11" font-weight="normal" text-anchor="start" fill="#777777">P50: 131ns</text>
  <line x1="20" y1="587" x2="1080" y2="587" stroke="#dee2e6" stroke-width="1"/>
  <rect x="0" y="584" width="1100" height="42" fill="#f8f9fa"/>
  <text x="188" y="607" font-size="15" font-weight="normal" text-anchor="end" fill="#333333">Stale Read (Memory)</text>
  <rect x="200" y="588" width="550" height="24" rx="3" fill="#2196F3" opacity="0.9"/>
  <text x="764" y="607" font-size="13" font-weight="bold" text-anchor="start" fill="#444444">5.02M ops/s</text>
  <text x="904" y="607" font-size="11" font-weight="normal" text-anchor="start" fill="#777777">P50: 129ns</text>
  <line x1="20" y1="629" x2="1080" y2="629" stroke="#dee2e6" stroke-width="1"/>
  <rect x="0" y="626" width="1100" height="42" fill="#ffffff"/>
  <text x="188" y="649" font-size="15" font-weight="normal" text-anchor="end" fill="#333333">Election 3N (WAL)</text>
  <rect x="200" y="630" width="550" height="24" rx="3" fill="#2196F3" opacity="0.9"/>
  <text x="764" y="649" font-size="13" font-weight="bold" text-anchor="start" fill="#444444">54.6 ops/s</text>
  <text x="904" y="649" font-size="11" font-weight="normal" text-anchor="start" fill="#777777">P50: 17.28ms</text>
  <line x1="20" y1="671" x2="1080" y2="671" stroke="#dee2e6" stroke-width="1"/>
  <rect x="0" y="668" width="1100" height="42" fill="#f8f9fa"/>
  <text x="188" y="691" font-size="15" font-weight="normal" text-anchor="end" fill="#333333">Propose Sequential 3N (WAL)</text>
  <rect x="200" y="672" width="550" height="24" rx="3" fill="#2196F3" opacity="0.9"/>
  <text x="764" y="691" font-size="13" font-weight="bold" text-anchor="start" fill="#444444">2.41K ops/s</text>
  <text x="904" y="691" font-size="11" font-weight="normal" text-anchor="start" fill="#777777">P50: 398.5us</text>
  <line x1="20" y1="713" x2="1080" y2="713" stroke="#dee2e6" stroke-width="1"/>
  <rect x="0" y="710" width="1100" height="42" fill="#ffffff"/>
  <text x="188" y="733" font-size="15" font-weight="normal" text-anchor="end" fill="#333333">Propose Concurrent/8 3N (WAL)</text>
  <rect x="200" y="714" width="550" height="24" rx="3" fill="#2196F3" opacity="0.9"/>
  <text x="764" y="733" font-size="13" font-weight="bold" text-anchor="start" fill="#444444">11.97K ops/s</text>
  <text x="904" y="733" font-size="11" font-weight="normal" text-anchor="start" fill="#777777">P50: 429.6us</text>
  <line x1="20" y1="755" x2="1080" y2="755" stroke="#dee2e6" stroke-width="1"/>
  <rect x="0" y="752" width="1100" height="42" fill="#f8f9fa"/>
  <text x="188" y="775" font-size="15" font-weight="normal" text-anchor="end" fill="#333333">Commit Latency 3N (WAL)</text>
  <rect x="200" y="756" width="550" height="24" rx="3" fill="#2196F3" opacity="0.9"/>
  <text x="764" y="775" font-size="13" font-weight="bold" text-anchor="start" fill="#444444">2.48K ops/s</text>
  <text x="904" y="775" font-size="11" font-weight="normal" text-anchor="start" fill="#777777">P50: 387.9us</text>
  <line x1="20" y1="797" x2="1080" y2="797" stroke="#dee2e6" stroke-width="1"/>
  <rect x="0" y="794" width="1100" height="42" fill="#ffffff"/>
  <text x="188" y="817" font-size="15" font-weight="normal" text-anchor="end" fill="#333333">Sync Read 3N (WAL)</text>
  <rect x="200" y="798" width="550" height="24" rx="3" fill="#2196F3" opacity="0.9"/>
  <text x="764" y="817" font-size="13" font-weight="bold" text-anchor="start" fill="#444444">8.47K ops/s</text>
  <text x="904" y="817" font-size="11" font-weight="normal" text-anchor="start" fill="#777777">P50: 109.2us</text>
  <line x1="20" y1="839" x2="1080" y2="839" stroke="#dee2e6" stroke-width="1"/>
  <rect x="0" y="836" width="1100" height="42" fill="#f8f9fa"/>
  <text x="188" y="859" font-size="15" font-weight="normal" text-anchor="end" fill="#333333">Sync Read 3N (WAL+LeaseRead)</text>
  <rect x="200" y="840" width="550" height="24" rx="3" fill="#2196F3" opacity="0.9"/>
  <text x="764" y="859" font-size="13" font-weight="bold" text-anchor="start" fill="#444444">142.03K ops/s</text>
  <text x="904" y="859" font-size="11" font-weight="normal" text-anchor="start" fill="#777777">P50: 4.4us</text>
  <line x1="20" y1="881" x2="1080" y2="881" stroke="#dee2e6" stroke-width="1"/>
  <rect x="0" y="878" width="1100" height="42" fill="#ffffff"/>
  <text x="188" y="901" font-size="15" font-weight="normal" text-anchor="end" fill="#333333">Stale Read 3N (WAL)</text>
  <rect x="200" y="882" width="550" height="24" rx="3" fill="#2196F3" opacity="0.9"/>
  <text x="764" y="901" font-size="13" font-weight="bold" text-anchor="start" fill="#444444">4.44M ops/s</text>
  <text x="904" y="901" font-size="11" font-weight="normal" text-anchor="start" fill="#777777">P50: 142ns</text>
  <line x1="20" y1="923" x2="1080" y2="923" stroke="#dee2e6" stroke-width="1"/>
  <rect x="0" y="920" width="1100" height="42" fill="#f8f9fa"/>
  <text x="188" y="943" font-size="15" font-weight="normal" text-anchor="end" fill="#333333">Election 5N (WAL)</text>
  <rect x="200" y="924" width="550" height="24" rx="3" fill="#2196F3" opacity="0.9"/>
  <text x="764" y="943" font-size="13" font-weight="bold" text-anchor="start" fill="#444444">54.6 ops/s</text>
  <text x="904" y="943" font-size="11" font-weight="normal" text-anchor="start" fill="#777777">P50: 17.75ms</text>
  <line x1="20" y1="965" x2="1080" y2="965" stroke="#dee2e6" stroke-width="1"/>
  <rect x="0" y="962" width="1100" height="42" fill="#ffffff"/>
  <text x="188" y="985" font-size="15" font-weight="normal" text-anchor="end" fill="#333333">Propose Sequential 5N (WAL)</text>
  <rect x="200" y="966" width="550" height="24" rx="3" fill="#2196F3" opacity="0.9"/>
  <text x="764" y="985" font-size="13" font-weight="bold" text-anchor="start" fill="#444444">2.23K ops/s</text>
  <text x="904" y="985" font-size="11" font-weight="normal" text-anchor="start" fill="#777777">P50: 413.6us</text>
  <line x1="20" y1="1007" x2="1080" y2="1007" stroke="#dee2e6" stroke-width="1"/>
  <rect x="0" y="1004" width="1100" height="42" fill="#f8f9fa"/>
  <text x="188" y="1027" font-size="15" font-weight="normal" text-anchor="end" fill="#333333">Propose Concurrent/8 5N (WAL)</text>
  <rect x="200" y="1008" width="550" height="24" rx="3" fill="#2196F3" opacity="0.9"/>
  <text x="764" y="1027" font-size="13" font-weight="bold" text-anchor="start" fill="#444444">5.53K ops/s</text>
  <text x="904" y="1027" font-size="11" font-weight="normal" text-anchor="start" fill="#777777">P50: 630.2us</text>
  <line x1="20" y1="1049" x2="1080" y2="1049" stroke="#dee2e6" stroke-width="1"/>
  <rect x="0" y="1046" width="1100" height="42" fill="#ffffff"/>
  <text x="188" y="1069" font-size="15" font-weight="normal" text-anchor="end" fill="#333333">Commit Latency 5N (WAL)</text>
  <rect x="200" y="1050" width="550" height="24" rx="3" fill="#2196F3" opacity="0.9"/>
  <text x="764" y="1069" font-size="13" font-weight="bold" text-anchor="start" fill="#444444">2.44K ops/s</text>
  <text x="904" y="1069" font-size="11" font-weight="normal" text-anchor="start" fill="#777777">P50: 391.9us</text>
  <line x1="20" y1="1091" x2="1080" y2="1091" stroke="#dee2e6" stroke-width="1"/>
  <rect x="0" y="1088" width="1100" height="42" fill="#f8f9fa"/>
  <text x="188" y="1111" font-size="15" font-weight="normal" text-anchor="end" fill="#333333">Sync Read 5N (WAL)</text>
  <rect x="200" y="1092" width="550" height="24" rx="3" fill="#2196F3" opacity="0.9"/>
  <text x="764" y="1111" font-size="13" font-weight="bold" text-anchor="start" fill="#444444">7.27K ops/s</text>
  <text x="904" y="1111" font-size="11" font-weight="normal" text-anchor="start" fill="#777777">P50: 128.7us</text>
  <line x1="20" y1="1133" x2="1080" y2="1133" stroke="#dee2e6" stroke-width="1"/>
  <rect x="0" y="1130" width="1100" height="42" fill="#ffffff"/>
  <text x="188" y="1153" font-size="15" font-weight="normal" text-anchor="end" fill="#333333">Sync Read 5N (WAL+LeaseRead)</text>
  <rect x="200" y="1134" width="550" height="24" rx="3" fill="#2196F3" opacity="0.9"/>
  <text x="764" y="1153" font-size="13" font-weight="bold" text-anchor="start" fill="#444444">107.16K ops/s</text>
  <text x="904" y="1153" font-size="11" font-weight="normal" text-anchor="start" fill="#777777">P50: 6.1us</text>
  <line x1="20" y1="1175" x2="1080" y2="1175" stroke="#dee2e6" stroke-width="1"/>
  <rect x="0" y="1172" width="1100" height="42" fill="#f8f9fa"/>
  <text x="188" y="1195" font-size="15" font-weight="normal" text-anchor="end" fill="#333333">Stale Read 5N (WAL)</text>
  <rect x="200" y="1176" width="550" height="24" rx="3" fill="#2196F3" opacity="0.9"/>
  <text x="764" y="1195" font-size="13" font-weight="bold" text-anchor="start" fill="#444444">4.56M ops/s</text>
  <text x="904" y="1195" font-size="11" font-weight="normal" text-anchor="start" fill="#777777">P50: 134ns</text>
  <line x1="20" y1="1217" x2="1080" y2="1217" stroke="#dee2e6" stroke-width="1"/>
  <rect x="0" y="1258" width="1100" height="60" fill="#f8f9fa"/>
  <line x1="0" y1="1258" x2="1100" y2="1258" stroke="#dee2e6" stroke-width="1"/>
  <rect x="200" y="1280" width="14" height="14" fill="#2196F3" rx="3"/>
  <text x="220" y="1292" font-size="12" font-weight="normal" text-anchor="start" fill="#333333">quicraft</text>
</svg>
